<svg xmlns="http://www.w3.org/2000/svg" viewBox="0 0 100 100">
  <circle cx="50" cy="50" r="50" fill="#01A3E4"/>
  <circle cx="50" cy="38" r="16" fill="#E8C4A0"/>
  <ellipse cx="50" cy="85" rx="28" ry="22" fill="#E8C4A0"/>
  <path d="M28 35 Q30 15 50 16 Q70 15 72 35 Q74 28 68 22 Q60 10 50 8 Q40 10 32 22 Q26 28 28 35Z" fill="#8B4513"/>
  <path d="M28 35 Q24 45 27 50" stroke="#8B4513" stroke-width="4" fill="none" stroke-linecap="round"/>
  <path d="M72 35 Q76 45 73 50" stroke="#8B4513" stroke-width="4" fill="none" stroke-linecap="round"/>
  <circle cx="43" cy="36" r="2.5" fill="#3D2B1F"/>
  <circle cx="57" cy="36" r="2.5" fill="#3D2B1F"/>
  <path d="M46 45 Q50 48 54 45" stroke="#C47A5A" stroke-width="1.5" fill="none" stroke-linecap="round"/>
</svg>