<svg xmlns="http://www.w3.org/2000/svg" viewBox="0 0 100 100">
  <circle cx="50" cy="50" r="50" fill="#01558B"/>
  <circle cx="50" cy="38" r="16" fill="#FDDCB5"/>
  <ellipse cx="50" cy="85" rx="28" ry="22" fill="#FDDCB5"/>
  <path d="M30 30 Q35 15 50 18 Q65 15 70 30 Q72 22 65 20 Q55 10 45 10 Q35 10 28 22 Z" fill="#5C3A1E"/>
  <path d="M28 32 Q25 28 30 30" fill="#5C3A1E"/>
  <path d="M72 32 Q75 28 70 30" fill="#5C3A1E"/>
  <path d="M25 35 Q22 25 30 30 Q28 40 25 35Z" fill="#5C3A1E"/>
  <path d="M75 35 Q78 25 70 30 Q72 40 75 35Z" fill="#5C3A1E"/>
  <circle cx="43" cy="36" r="2.5" fill="#3D2B1F"/>
  <circle cx="57" cy="36" r="2.5" fill="#3D2B1F"/>
  <path d="M46 45 Q50 48 54 45" stroke="#C47A5A" stroke-width="1.5" fill="none" stroke-linecap="round"/>
</svg>